<svg width="71" height="72" viewBox="0 0 71 72" fill="none" xmlns="http://www.w3.org/2000/svg">
<g clip-path="url(#clip0_7_560)">
<path d="M48.9441 18.5634V52.3299C48.9441 58.819 43.6883 64.0748 37.1993 64.0748C30.7102 64.0748 25.4544 58.819 25.4544 52.3299V15.6272C25.4544 11.5752 28.7429 8.28665 32.7949 8.28665C36.8469 8.28665 40.1355 11.5752 40.1355 15.6272V46.4575C40.1355 48.0724 38.8142 49.3937 37.1993 49.3937C35.5843 49.3937 34.263 48.0724 34.263 46.4575V18.5634H29.8587V46.4575C29.8587 50.5095 33.1473 53.798 37.1993 53.798C41.2512 53.798 44.5398 50.5095 44.5398 46.4575V15.6272C44.5398 9.13816 39.284 3.88232 32.7949 3.88232C26.3059 3.88232 21.05 9.13816 21.05 15.6272V52.3299C21.05 61.256 28.2731 68.4791 37.1993 68.4791C46.1254 68.4791 53.3485 61.256 53.3485 52.3299V18.5634H48.9441Z" fill="#424941"/>
</g>
<defs>
<clipPath id="clip0_7_560">
<rect width="70.4693" height="70.4693" fill="white" transform="translate(0.496948 0.945312)"/>
</clipPath>
</defs>
</svg>
