<svg width="22" height="22" viewBox="0 0 22 22" fill="none" xmlns="http://www.w3.org/2000/svg">
<path d="M19.5372 10.5001C19.5372 9.43625 19.3277 8.38285 18.9206 7.4C18.5135 6.41716 17.9168 5.52412 17.1645 4.77189C16.4123 4.01965 15.5193 3.42294 14.5364 3.01584C13.5536 2.60873 12.5002 2.39919 11.4363 2.39919V4.83168C12.1807 4.83168 12.9178 4.9783 13.6055 5.26316C14.2933 5.54802 14.9181 5.96556 15.4445 6.49191C15.9709 7.01827 16.3884 7.64315 16.6732 8.33087C16.9581 9.0186 17.1047 9.75569 17.1047 10.5001H19.5372Z" fill="#424941"/>
<path d="M19.5372 11.7613C19.5372 12.8251 19.3277 13.8785 18.9206 14.8613C18.5135 15.8442 17.9168 16.7372 17.1645 17.4895C16.4123 18.2417 15.5193 18.8384 14.5364 19.2455C13.5536 19.6526 12.5002 19.8621 11.4363 19.8621V17.4297C12.1807 17.4297 12.9178 17.283 13.6055 16.9982C14.2933 16.7133 14.9181 16.2958 15.4445 15.7694C15.9709 15.2431 16.3884 14.6182 16.6732 13.9305C16.9581 13.2427 17.1047 12.5056 17.1047 11.7613H19.5372Z" fill="#424941"/>
<path d="M2.07423 10.5001C2.07423 9.43625 2.28377 8.38285 2.69088 7.4C3.09798 6.41716 3.69469 5.52412 4.44693 4.77189C5.19916 4.01965 6.0922 3.42294 7.07504 3.01584C8.05789 2.60873 9.11129 2.39919 10.1751 2.39919V4.83168C9.43073 4.83168 8.69364 4.9783 8.00592 5.26316C7.31819 5.54802 6.69332 5.96556 6.16696 6.49191C5.6406 7.01827 5.22307 7.64315 4.9382 8.33087C4.65334 9.0186 4.50672 9.75569 4.50672 10.5001H2.07423Z" fill="#424941"/>
<path d="M2.07423 11.7613C2.07423 12.8251 2.28377 13.8785 2.69088 14.8613C3.09798 15.8442 3.69469 16.7372 4.44693 17.4895C5.19916 18.2417 6.0922 18.8384 7.07504 19.2455C8.05789 19.6526 9.11129 19.8621 10.1751 19.8621V17.4297C9.43073 17.4297 8.69364 17.283 8.00592 16.9982C7.31819 16.7133 6.69332 16.2958 6.16696 15.7694C5.6406 15.2431 5.22307 14.6182 4.9382 13.9305C4.65334 13.2427 4.50672 12.5056 4.50672 11.7613H2.07423Z" fill="#424941"/>
<circle cx="10.9534" cy="11.2786" r="4.73572" fill="#424941"/>
</svg>
