<svg width="662" height="91" viewBox="0 0 662 91" fill="none" xmlns="http://www.w3.org/2000/svg">
<rect x="0.510742" y="27.6213" width="13.8357" height="36.7414" rx="6.91783" fill="#AED1AC"/>
<rect x="149.936" y="27.6213" width="13.8357" height="36.7414" rx="6.91783" fill="#AED1AC"/>
<rect x="75.2234" y="0.67749" width="13.8357" height="89.404" rx="6.91783" fill="#AED1AC"/>
<rect x="25.4153" y="21.4973" width="13.8357" height="47.7638" rx="6.91783" fill="#AED1AC"/>
<rect x="50.3193" y="15.374" width="13.8357" height="58.7862" rx="6.91783" fill="#AED1AC"/>
<rect width="13.8357" height="47.7638" rx="6.91783" transform="matrix(-1 0 0 1 141.635 21.4973)" fill="#AED1AC"/>
<rect width="13.8357" height="58.7862" rx="6.91783" transform="matrix(-1 0 0 1 116.731 15.374)" fill="#AED1AC"/>
<rect x="299.356" y="27.6233" width="13.8357" height="36.7414" rx="6.91783" fill="#AED1AC"/>
<rect x="448.78" y="27.6233" width="13.8357" height="36.7414" rx="6.91783" fill="#AED1AC"/>
<rect x="374.068" y="0.679443" width="13.8357" height="89.404" rx="6.91783" fill="#AED1AC"/>
<rect x="324.26" y="21.4995" width="13.8357" height="47.7638" rx="6.91783" fill="#AED1AC"/>
<rect x="349.164" y="15.376" width="13.8357" height="58.7862" rx="6.91783" fill="#AED1AC"/>
<rect width="13.8357" height="47.7638" rx="6.91783" transform="matrix(-1 0 0 1 440.479 21.4995)" fill="#AED1AC"/>
<rect width="13.8357" height="58.7862" rx="6.91783" transform="matrix(-1 0 0 1 415.575 15.376)" fill="#AED1AC"/>
<rect x="598.211" y="27.6213" width="13.8357" height="36.7414" rx="6.91783" fill="#AED1AC"/>
<rect x="523.493" y="0.679443" width="13.8357" height="89.404" rx="6.91783" fill="#AED1AC"/>
<rect x="473.685" y="21.4995" width="13.8357" height="47.7638" rx="6.91783" fill="#AED1AC"/>
<rect x="498.589" y="15.376" width="13.8357" height="58.7862" rx="6.91783" fill="#AED1AC"/>
<rect width="13.8357" height="47.7638" rx="6.91783" transform="matrix(-1 0 0 1 589.91 21.4973)" fill="#AED1AC"/>
<rect width="13.8357" height="58.7862" rx="6.91783" transform="matrix(-1 0 0 1 565.006 15.374)" fill="#AED1AC"/>
<rect x="623.116" y="22.7224" width="13.8357" height="47.7638" rx="6.91783" fill="#AED1AC"/>
<rect x="648.02" y="16.5986" width="13.8357" height="58.7862" rx="6.91783" fill="#AED1AC"/>
<rect x="224.649" y="0.67749" width="13.8357" height="89.404" rx="6.91783" fill="#AED1AC"/>
<rect x="174.84" y="21.4973" width="13.8357" height="47.7638" rx="6.91783" fill="#AED1AC"/>
<rect x="199.745" y="15.374" width="13.8357" height="58.7862" rx="6.91783" fill="#AED1AC"/>
<rect width="13.8357" height="47.7638" rx="6.91783" transform="matrix(-1 0 0 1 291.054 21.4995)" fill="#AED1AC"/>
<rect width="13.8357" height="58.7862" rx="6.91783" transform="matrix(-1 0 0 1 266.15 15.376)" fill="#AED1AC"/>
</svg>
