<svg width="79" height="79" viewBox="0 0 79 79" fill="none" xmlns="http://www.w3.org/2000/svg">
<g clip-path="url(#clip0_7_557)">
<path d="M39.6209 46.2452C45.0282 46.2452 49.3605 41.8803 49.3605 36.4731L49.393 16.9288C49.393 11.5216 45.0282 7.15674 39.6209 7.15674C34.2137 7.15674 29.8488 11.5216 29.8488 16.9288V36.4731C29.8488 41.8803 34.2137 46.2452 39.6209 46.2452ZM56.885 36.4731C56.885 46.2452 48.6113 53.0856 39.6209 53.0856C30.6306 53.0856 22.3569 46.2452 22.3569 36.4731H16.8193C16.8193 47.5807 25.6794 56.7665 36.3636 58.3626V69.0467H42.8783V58.3626C53.5625 56.799 62.4225 47.6133 62.4225 36.4731H56.885Z" fill="#424941"/>
</g>
<defs>
<clipPath id="clip0_7_557">
<rect width="78.1768" height="78.1768" fill="white" transform="translate(0.532471 0.64209)"/>
</clipPath>
</defs>
</svg>
