<svg width="66" height="66" viewBox="0 0 66 66" fill="none" xmlns="http://www.w3.org/2000/svg">
<g clip-path="url(#clip0_7_495)">
<path d="M54.8063 42.353C51.4 42.353 48.13 41.808 45.0779 40.7997C44.1242 40.5 43.0614 40.718 42.2984 41.4537L36.3033 47.4488C28.5915 43.5248 22.2694 37.2299 18.3453 29.4908L24.3404 23.4685C25.1034 22.76 25.3214 21.6972 25.0217 20.7435C24.0134 17.6914 23.4684 14.4214 23.4684 11.0151C23.4684 9.51631 22.2421 8.29004 20.7434 8.29004H11.2057C9.70698 8.29004 8.48071 9.51631 8.48071 11.0151C8.48071 36.6032 29.2182 57.3407 54.8063 57.3407C56.3051 57.3407 57.5314 56.1144 57.5314 54.6157V45.078C57.5314 43.5793 56.3051 42.353 54.8063 42.353ZM52.0813 32.8154H57.5314C57.5314 19.2719 46.5495 8.29004 33.006 8.29004V13.7401C43.5519 13.7401 52.0813 22.2695 52.0813 32.8154ZM41.1811 32.8154H46.6312C46.6312 25.2943 40.5271 19.1902 33.006 19.1902V24.6403C37.5296 24.6403 41.1811 28.2918 41.1811 32.8154Z" fill="#424941"/>
</g>
<defs>
<clipPath id="clip0_7_495">
<rect width="65.4009" height="65.4009" fill="white" transform="translate(0.305664 0.11499)"/>
</clipPath>
</defs>
</svg>
