<svg width="20" height="21" viewBox="0 0 20 21" fill="none" xmlns="http://www.w3.org/2000/svg">
<path d="M13.9639 12.9034H13.0919L12.7828 12.6053C13.8645 11.347 14.5158 9.71328 14.5158 7.93612C14.5158 3.97337 11.3037 0.761227 7.34091 0.761227C3.37816 0.761227 0.166016 3.97337 0.166016 7.93612C0.166016 11.8989 3.37816 15.111 7.34091 15.111C9.11807 15.111 10.7517 14.4598 12.0101 13.378L12.3081 13.6871V14.5591L17.8273 20.0672L19.472 18.4225L13.9639 12.9034ZM7.34091 12.9034C4.59237 12.9034 2.37367 10.6847 2.37367 7.93612C2.37367 5.18758 4.59237 2.96889 7.34091 2.96889C10.0894 2.96889 12.3081 5.18758 12.3081 7.93612C12.3081 10.6847 10.0894 12.9034 7.34091 12.9034Z" fill="#424941"/>
</svg>
