<svg width="80" height="79" viewBox="0 0 80 79" fill="none" xmlns="http://www.w3.org/2000/svg">
<g clip-path="url(#clip0_7_563)">
<path d="M51.4767 36.4733C54.1752 36.4733 56.3627 34.2857 56.3627 31.5872C56.3627 28.8887 54.1752 26.7012 51.4767 26.7012C48.7782 26.7012 46.5906 28.8887 46.5906 31.5872C46.5906 34.2857 48.7782 36.4733 51.4767 36.4733Z" fill="#424941"/>
<path d="M28.6753 36.4733C31.3738 36.4733 33.5614 34.2857 33.5614 31.5872C33.5614 28.8887 31.3738 26.7012 28.6753 26.7012C25.9768 26.7012 23.7892 28.8887 23.7892 31.5872C23.7892 34.2857 25.9768 36.4733 28.6753 36.4733Z" fill="#424941"/>
<path d="M51.4767 36.4733C54.1752 36.4733 56.3627 34.2857 56.3627 31.5872C56.3627 28.8887 54.1752 26.7012 51.4767 26.7012C48.7782 26.7012 46.5906 28.8887 46.5906 31.5872C46.5906 34.2857 48.7782 36.4733 51.4767 36.4733Z" fill="#424941"/>
<path d="M28.6753 36.4733C31.3738 36.4733 33.5614 34.2857 33.5614 31.5872C33.5614 28.8887 31.3738 26.7012 28.6753 26.7012C25.9768 26.7012 23.7892 28.8887 23.7892 31.5872C23.7892 34.2857 25.9768 36.4733 28.6753 36.4733Z" fill="#424941"/>
<path d="M40.0436 7.15674C22.0629 7.15674 7.50244 21.7498 7.50244 39.7304C7.50244 57.7111 22.0629 72.3041 40.0436 72.3041C58.0568 72.3041 72.6498 57.7111 72.6498 39.7304C72.6498 21.7498 58.0568 7.15674 40.0436 7.15674ZM40.0761 65.7894C25.6786 65.7894 14.0172 54.128 14.0172 39.7304C14.0172 25.3329 25.6786 13.6715 40.0761 13.6715C54.4737 13.6715 66.1351 25.3329 66.1351 39.7304C66.1351 54.128 54.4737 65.7894 40.0761 65.7894ZM40.0761 57.646C47.6658 57.646 54.148 52.9228 56.7539 46.2452H51.3141C49.0665 50.1214 44.897 52.7599 40.0761 52.7599C35.2552 52.7599 31.1184 50.1214 28.8382 46.2452H23.3984C26.0043 52.9228 32.4865 57.646 40.0761 57.646Z" fill="#424941"/>
</g>
<defs>
<clipPath id="clip0_7_563">
<rect width="78.1768" height="78.1768" fill="white" transform="translate(0.987915 0.64209)"/>
</clipPath>
</defs>
</svg>
